<?xml version="1.0" encoding="utf-8"?>
<!-- Generator: Adobe Illustrator 21.1.0, SVG Export Plug-In . SVG Version: 6.00 Build 0)  -->
<svg version="1.0" xmlns="http://www.w3.org/2000/svg" xmlns:xlink="http://www.w3.org/1999/xlink" x="0px" y="0px"
	 viewBox="0 0 170.1 155.9" style="enable-background:new 0 0 170.1 155.9;" xml:space="preserve">
<style type="text/css">
	.st0{fill:#CF2C4B;}
	.st1{fill:#FFFFFF;}
	.st2{fill:#9F9F9F;}
</style>
<g id="Слой_1">
</g>
<g id="Слой_2">
	<polygon class="st1" points="86.3,95.7 75.4,85.3 78.2,82.4 86.4,90.2 94.9,82.4 97.6,85.3 	"/>
	<path class="st1" d="M86.2,80.8c-16.3,0-29.5,13.2-29.5,29.5c0,16.3,13.2,29.5,29.5,29.5s29.5-13.2,29.5-29.5
		C115.7,94,102.5,80.8,86.2,80.8z M109.1,99.1c1.1,2.2,1.9,4.6,2.3,7.2l-4.5-2.7L109.1,99.1z M86.2,84.8c8.4,0,15.8,4.1,20.5,10.3
		l-4.3,8.5l-5.2,1.4l-8.6-6.3l-0.5-7.8l-4,0.2l0.4,6.9l-8.7,6.3l-5.9-1.6l-4.4-7.4C70.2,88.9,77.7,84.8,86.2,84.8z M91,116.7h-9.7
		l-3-9.2l7.8-5.7l7.8,5.7L91,116.7z M63.2,99.2l2.7,4.5l-5,3.5C61.2,104.4,62,101.7,63.2,99.2z M64.8,124.1c-2.3-3.5-3.7-7.5-4-11.9
		l8.1-5.6l5.4,1.5l3.4,10.3l-3.6,4.5L64.8,124.1z M67.7,127.8l6.1-0.8l1.2,6.2C72.2,131.8,69.7,130,67.7,127.8z M86.2,135.8
		c-2.4,0-4.7-0.3-6.9-0.9l-1.9-9.8l3.5-4.3h10.1l3.5,4.9l-1.9,9.3C90.6,135.5,88.4,135.8,86.2,135.8z M97.1,133.4l1.3-6.1l6.2,0.8
		C102.4,130.2,99.8,132,97.1,133.4z M97.6,123.1l-3.1-4.4l3.1-9.7l7.2-1.9l0,0l6.9,4.1c-0.2,4.9-1.7,9.5-4.3,13.3L97.6,123.1z"/>
	<g>
		<path class="st1" d="M138,25.6H34.7c-8.8,0-16,7.3-16,16.3v30.4c0,0.6,0.5,1.2,1.2,1.2h1.7c0.6,0,1.2-0.5,1.2-1.2V41.9
			c0-6.8,5.4-12.3,12-12.3H138c6.6,0,12,5.5,12,12.3v30.4c0,0.6,0.5,1.2,1.2,1.2h1.7c0.6,0,1.2-0.5,1.2-1.2V41.9
			C154,32.9,146.9,25.6,138,25.6z"/>
		<path class="st1" d="M152.9,79.3h-1.7c-0.6,0-1.2,0.5-1.2,1.2v38.3c0,1.7-1.3,3-3,3s-3-1.3-3-3V41.9c0-3.4-2.7-6.1-6-6.1H34.7
			c-3.3,0-6,2.7-6,6.1v76.9c0,1.7-1.3,3-3,3s-3-1.3-3-3V80.5c0-0.6-0.5-1.2-1.2-1.2h-1.7c-0.6,0-1.2,0.5-1.2,1.2v38.3
			c0,3.9,3.1,7,7,7c2.4,0,4.5-1.2,5.7-3l0,0l0.1-0.1c0,0,0,0,0,0L41,109h17.9c0.1-1.4,0.4-2.7,0.7-4H40.7V47h91.7v58h-19.5
			c0.3,1.3,0.6,2.6,0.7,4h19.5l7.8,13.2l0,0c1.2,2.2,3.5,3.6,6.1,3.6c3.9,0,7-3.1,7-7V80.5C154,79.8,153.5,79.3,152.9,79.3z
			 M140,42.3v70.5l-3.7-6.2V45.7L140,42.3z M36.7,46.5V108l-4,5.7V42.7L36.7,46.5z M38.8,43l-3.3-3.1h101.3l-3.4,3.1H38.8z"/>
	</g>
	<g>
		<path class="st1" d="M135.6,101.7c-0.1-1.9-0.1-3.9-0.2-5.8l-2.9-2.9l2.9-2.9c0-0.1,0-0.2,0-0.3c0-3.5,0.1-6.9,0.1-10.4l-3.3-3.3
			l3.4-3.4c0-3.7,0-7.3-0.1-11l-3-3l2.8-2.8c-0.1-1.8-0.2-3.6-0.3-5.3l-5.3,5.3l-5.5-5.5l5.3-5.3h-5.7l-2.5,2.5l-2.5-2.5h-5.7
			l5.3,5.3l-6,6l-6.3-6.3l5-5h-5.7l-2.2,2.2l-2.2-2.2h-5.7l5,5l-5.5,5.5l-5.8-5.8L94,45h-5.7l-1.9,1.9L84.5,45h-5.7l4.8,4.8l-6,6
			l-6.2-6.2L76,45h-5.7l-1.7,1.7L67,45h-5.7l4.5,4.5l-5.9,5.9l-5.5-5.5l5-5h-5.7l-2.1,2.1L49.5,45h-5.7l5,5l-6,6L38.8,52v5.7
			l1.1,1.1l-1.1,1.1v5.7l3.9-3.9l5.5,5.5l-5.7,5.7L38.8,69v5.7l0.9,0.9l-0.9,0.9v5.7l3.8-3.8l6.2,6.2l-5.9,5.9l-4-4v5.7l1.2,1.2
			l-1.2,1.2v5.7l4-4l5.8,5.8l-3.8,3.8c1.9-0.1,3.9-0.2,5.8-0.2l0.8-0.8l0.8,0.8c1.9,0,3.8,0,5.7,0.1l-3.7-3.7l5.9-5.9l2.6,2.6
			c0.6-1.2,1.3-2.4,2.1-3.5L63,93.2l5.7-5.7l1.7,1.7c1.1-0.9,2.2-1.6,3.3-2.3l-2.2-2.2l6-6l4.9,4.9c2.7-0.4,5.5-0.4,8.2,0.2l4.7-4.7
			l5.5,5.5l-1.8,1.8c1.2,0.7,2.3,1.5,3.4,2.2l1.2-1.2l5.7,5.7l-1,1c0.3,0.4,0.7,0.8,1,1.3c0.5,0.7,0.9,1.4,1.3,2.1l1.6-1.6l5.8,5.8
			l-4.3,4.3c1.9,0,3.7,0,5.6,0l1.5-1.5l1.5,1.5c1.9,0,3.8,0,5.7,0.1l-4.4-4.4l6-6L135.6,101.7z M135.2,84.6l-5.5,5.5l-5.8-5.8
			l5.5-5.5L135.2,84.6z M121,81.5l-5.7-5.7l5.5-5.5l5.7,5.7L121,81.5z M135.4,67.1l-6,6l-5.7-5.7l6-6L135.4,67.1z M121.4,53.1
			l5.5,5.5l-6,6l-5.5-5.5L121.4,53.1z M118.1,67.4l-5.5,5.5l-5.5-5.5l5.5-5.5L118.1,67.4z M103.4,52.8l6.3,6.3l-5.5,5.5l-6.3-6.3
			L103.4,52.8z M86.5,52.5l5.8,5.8l-6,6l-5.8-5.8L86.5,52.5z M68.7,52.3l6.2,6.2l-5.9,5.9l-6.2-6.2L68.7,52.3z M66.1,67.2l-6,6
			l-6.2-6.2l6-6L66.1,67.2z M45.6,58.8l6-6l5.5,5.5l-6,6L45.6,58.8z M45.4,75.6l5.7-5.7l6.2,6.2l-5.7,5.7L45.4,75.6z M51.4,99.1
			l-5.8-5.8l5.9-5.9l5.8,5.8L51.4,99.1z M60.2,90.4l-5.8-5.8l5.7-5.7l5.8,5.8L60.2,90.4z M68.7,81.9l-5.8-5.8l6-6l5.8,5.8L68.7,81.9
			z M71.8,67.2l5.9-5.9l5.8,5.8L77.5,73L71.8,67.2z M86.7,82.2l-6.3-6.3l5.9-5.9l6.3,6.3L86.7,82.2z M89.1,67.1l6-6l6.3,6.3l-6,6
			L89.1,67.1z M98.3,76.2l6-6l5.5,5.5l-6,6L98.3,76.2z M106.6,84.6l6-6l5.7,5.7l-6,6L106.6,84.6z M120.9,98.9l-5.8-5.8l6-6l5.8,5.8
			L120.9,98.9z"/>
	</g>
</g>
<g id="Слой_3">
</g>
</svg>
