<?xml version="1.0" encoding="utf-8"?>
<!-- Generator: Adobe Illustrator 21.1.0, SVG Export Plug-In . SVG Version: 6.00 Build 0)  -->
<svg version="1.0" xmlns="http://www.w3.org/2000/svg" xmlns:xlink="http://www.w3.org/1999/xlink" x="0px" y="0px"
	 viewBox="0 0 170.1 155.9" style="enable-background:new 0 0 170.1 155.9;" xml:space="preserve">
<style type="text/css">
	.st0{fill:#CF2C4B;}
	.st1{fill:#FFFFFF;}
	.st2{fill:#9F9F9F;}
</style>
<g id="Слой_1">
</g>
<g id="Слой_2">
</g>
<g id="Слой_3">
	<path class="st1" d="M139.5,60.6c-9.9-21.8-31.7-35.9-55.6-35.9c-24.4,0-46.4,14.5-56,36.9l-0.2,0.4v43.2l35.5,6.9
		c-0.7-1.3-0.8-2.8-0.3-4.1l-31.2-6.1V62.7C40.8,42,61.3,28.6,83.9,28.6c22.2,0,42.5,13,51.8,33.2v40l-29.9,5.8
		c0.4,1.4,0.4,3-0.4,4.2l34.3-6.7V61L139.5,60.6z"/>
	<path class="st1" d="M62.2,83.5V57.7h42.5v25.8c0,1.1,0.9,2,2,2h0c1.1,0,2-0.9,2-2V53.7H58.2v29.8c0,1.1,0.9,2,2,2h0
		C61.3,85.5,62.2,84.6,62.2,83.5z"/>
	<path class="st1" d="M54,90.5v4h5.4l2.2,41.9l4-0.2l-0.1-2.5h36.3l-0.1,2.5l4,0.2l2.4-41.9h5.5v-4H54z M103.3,104.9l-3.6,3.7
		l-6.6-6.6l7.4-7.5h3.4L103.3,104.9z M100.7,129.6l-8.1-8.1l7.1-7.3l2.9,2.9l-0.7,12.5H100.7z M77.6,112.1l-6.2,6.3l-5.9-5.9
		l6.2-6.3L77.6,112.1z M74.4,103.3l7.1-7.3l5.9,5.9l-7.1,7.3L74.4,103.3z M80.4,115l6.6,6.6l-6.2,6.3l-6.6-6.6L80.4,115z
		 M83.2,112.1l7.1-7.3l6.6,6.6l-7.1,7.3L83.2,112.1z M90.3,99.2l-4.7-4.7h9.3L90.3,99.2z M71.6,100.5l-6.1-6.1h12L71.6,100.5z
		 M63.6,98.2l5.2,5.2l-4.7,4.8L63.6,98.2z M68.6,121.3L65,125l-0.4-7.6L68.6,121.3z M71.4,124.1l5.5,5.5H66L71.4,124.1z M89.8,124.4
		l5.2,5.2H84.7L89.8,124.4z M102.6,111.4l0.4-0.4l0,0.8L102.6,111.4z"/>
	<circle class="st1" cx="101.9" cy="62.4" r="14.3"/>
</g>
</svg>
