<?xml version="1.0" encoding="utf-8"?>
<!-- Generator: Adobe Illustrator 21.1.0, SVG Export Plug-In . SVG Version: 6.00 Build 0)  -->
<svg version="1.0" xmlns="http://www.w3.org/2000/svg" xmlns:xlink="http://www.w3.org/1999/xlink" x="0px" y="0px"
	 viewBox="0 0 170.1 155.9" style="enable-background:new 0 0 170.1 155.9;" xml:space="preserve">
<style type="text/css">
	.st0{fill:#CF2C4B;}
	.st1{fill:#FFFFFF;}
	.st2{fill:#9F9F9F;}
</style>
<g id="Слой_1">
</g>
<g id="Слой_2">
	<path class="st1" d="M90.4,124.3L90.4,124.3c-1.1,0-2-0.9-2-2V60.5c0-1.1,0.9-2,2-2l0,0c1.1,0,2,0.9,2,2v61.8
		C92.4,123.4,91.5,124.3,90.4,124.3z"/>
	<path class="st1" d="M143.4,144.3L143.4,144.3c-1.1,0-2-0.9-2-2V37c0-1.1,0.9-2,2-2h0c1.1,0,2,0.9,2,2v105.3
		C145.4,143.4,144.5,144.3,143.4,144.3z"/>
	<path class="st1" d="M144.6,65.7c-0.2-1.3-0.4-2.7-0.4-4l-7.8,2V49.5l8.9-3.7c-0.7-1.2-0.9-2.8-0.5-4.1L90.3,64.5l1.5,3.7l4.2-1.8
		V74l-6.2,1.6l1,3.9l5.3-1.3v7.5L90.3,86l0.2,4l5.5-0.3v8.9l-5.7-0.2l-0.1,4l5.8,0.2v7.8l-4.7-0.8l-0.7,3.9l52.8,8.9
		c-0.3-1.3,0-2.7,0.7-3.9l-7.9-1.3v-13.5l7.2,0.2c-0.6-1.2-0.7-2.7-0.3-4l-6.9-0.2V87.3l7.5-0.4c-0.4-1.3-0.4-2.8,0.1-4l-7.6,0.5
		V67.8L144.6,65.7z M132.4,64.7l-5,1.3V53.3l5-2.1V64.7z M114,73.6v11l-4.6,0.3V74.7L114,73.6z M109.4,70.6v-9.8l4.6-1.9v10.5
		L109.4,70.6z M114,88.6v10.5l-4.6-0.1V88.9L114,88.6z M114,103.1v10.3l-4.6-0.8V103L114,103.1z M118,103.2l5.4,0.2V115l-5.4-0.9
		V103.2z M118,99.2V88.4l5.4-0.3v11.3L118,99.2z M118,84.4V72.5l5.4-1.4V84L118,84.4z M118,68.4V57.3l5.4-2.3v12L118,68.4z
		 M100.1,64.7l5.3-2.2v9.1l-5.3,1.3V64.7z M100.1,77.1l5.3-1.3v9.4l-5.3,0.3V77.1z M100.1,89.4l5.3-0.3v9.7l-5.3-0.1V89.4z
		 M100.1,102.7l5.3,0.1v9.1l-5.3-0.9V102.7z M132.4,116.5l-5-0.8v-12.2l5,0.1V116.5z M132.4,99.6l-5-0.1V87.8l5-0.3V99.6z
		 M132.4,83.5l-5,0.3V70.1l5-1.3V83.5z"/>
</g>
<g id="Слой_3">
	<circle class="st1" cx="95" cy="21.4" r="10.1"/>
	<path class="st1" d="M59,49c-5.7,0-10.4-4.6-10.4-10.4c0-5.7,4.6-10.4,10.4-10.4c5.7,0,10.4,4.6,10.4,10.4C69.3,44.3,64.7,49,59,49
		z M59,32.2c-3.5,0-6.4,2.9-6.4,6.4c0,3.5,2.9,6.4,6.4,6.4c3.5,0,6.4-2.9,6.4-6.4C65.3,35.1,62.5,32.2,59,32.2z"/>
	<path class="st1" d="M64.4,131.1c-0.7,0-1.4-0.1-2-0.4c-2.8-1.1-4.2-4.3-3.1-7.1l7.5-19c0.1-0.3,0.1-0.5,0.1-0.8l-2.3-13.2
		l-3.2,11.1c-0.5,1.7-1.8,3.1-3.4,3.6l-18.5,6.6c-2.9,1-6-0.5-7-3.3c-0.5-1.4-0.4-2.9,0.2-4.2c0.6-1.3,1.7-2.3,3.1-2.8L51,96.1
		c0.5-0.2,0.8-0.5,0.9-1l3.3-11.5L52.4,61l-2.7,0.3c-2.8,0.4-5.6-0.1-8.2-1.2l-4.5-2c-3.1-1.4-5.4-4.1-6.4-7.3L27.5,40
		c-0.9-2.9,0.8-6,3.7-6.9c1.4-0.4,2.9-0.3,4.2,0.4c1.3,0.7,2.2,1.8,2.7,3.2l2.8,9.1c0.4,1.4,1.4,2.5,2.7,3l1.6,0.7
		c1.4,0.7,3,0.9,4.6,0.7l20.8-2.7c0.1,0,0.2,0,0.2,0l25.6-7.7c2.9-0.9,6,0.8,6.8,3.7c0.9,2.9-0.8,6-3.7,6.8L74.1,58
		c-0.5,0.1-0.9,0.3-1.4,0.3l2.5,28.4l2.9,17.2c0.2,1,0.1,2-0.3,3l-8.3,20.8C68.7,129.8,66.6,131.1,64.4,131.1z M62.2,84.9h5.6
		l3.1,18.2c0.2,1,0.1,2-0.3,3L63,125c-0.3,0.8,0.1,1.6,0.8,1.9c0.8,0.3,1.6-0.1,1.9-0.8l8.3-20.8c0.1-0.3,0.1-0.5,0.1-0.8l-3-17.4
		l-2.8-32.2l2.7-0.4c0.6-0.1,1.3-0.2,1.9-0.4l25.3-7.6c0.8-0.2,1.2-1.1,1-1.9c-0.2-0.8-1.1-1.2-1.9-1l-25.6,7.7
		c-0.3,0.1-0.6,0.1-0.9,0.2l-20.8,2.7c-2.3,0.3-4.6,0-6.8-1l-1.6-0.7c-2.3-1.1-4.1-3.1-4.8-5.5l-2.8-9.1c-0.1-0.4-0.4-0.7-0.7-0.9
		c-0.4-0.2-0.8-0.2-1.1-0.1c-0.8,0.2-1.2,1.1-1,1.9l3.3,10.9c0.7,2.1,2.2,3.9,4.2,4.8l4.5,2c1.9,0.9,3.9,1.2,6,0.9l6.6-0.9l3.4,27.4
		l-3.6,12.3c-0.5,1.7-1.8,3.1-3.4,3.6l-15.1,5.4c-0.4,0.1-0.7,0.4-0.9,0.8c-0.2,0.4-0.2,0.8-0.1,1.1c0.3,0.8,1.1,1.2,1.9,0.9
		l18.5-6.6c0.5-0.2,0.8-0.5,0.9-1L62.2,84.9z"/>
</g>
</svg>
